<svg width="24" height="24" viewBox="0 0 24 24" fill="none" xmlns="http://www.w3.org/2000/svg">
<path d="M21 4H12C11.4477 4 11 4.44772 11 5V11C11 11.5523 11.4477 12 12 12H15.5858C15.851 12 16.1054 12.1054 16.2929 12.2929L18.2929 14.2929C18.9229 14.9229 20 14.4767 20 13.5858V13C20 12.4477 20.4477 12 21 12C21.5523 12 22 11.5523 22 11V5C22 4.44772 21.5523 4 21 4Z" stroke="black" stroke-width="1.2"/>
<path d="M13 12V15C13 15.5523 12.5523 16 12 16H8.41421C8.149 16 7.89464 16.1054 7.70711 16.2929L5.70711 18.2929C5.07714 18.9229 4 18.4767 4 17.5858V17C4 16.4477 3.55228 16 3 16V16C2.44772 16 2 15.5523 2 15V9C2 8.44772 2.44772 8 3 8H11" stroke="black" stroke-width="1.2"/>
<path d="M5 14L5.5 13M9 14L8.5 13M5.5 13L7 10L8.5 13M5.5 13H8.5" stroke="black" stroke-width="1.2" stroke-linecap="round" stroke-linejoin="round"/>
<path d="M15 7H17M19 7H18M17 7V6M17 7H18M19 10C18.3333 10 16.8 9.6 16 8M18 7C18.1667 7 18.4 7.2 18 8C17.5 9 16 10 15 10" stroke="black" stroke-width="1.2" stroke-linecap="round"/>
</svg>
